<?xml version="1.0" encoding="UTF-8" standalone="no"?>
<!-- Created with Inkscape (http://www.inkscape.org/) -->

<svg
   xmlns:dc="http://purl.org/dc/elements/1.1/"
   xmlns:cc="http://creativecommons.org/ns#"
   xmlns:rdf="http://www.w3.org/1999/02/22-rdf-syntax-ns#"
   xmlns:svg="http://www.w3.org/2000/svg"
   xmlns="http://www.w3.org/2000/svg"
   xmlns:sodipodi="http://sodipodi.sourceforge.net/DTD/sodipodi-0.dtd"
   xmlns:inkscape="http://www.inkscape.org/namespaces/inkscape"
   id="svg8"
   version="1.1"
   viewBox="0 0 157.27586 51.574411"
   height="51.574409mm"
   width="157.27586mm"
   sodipodi:docname="missionTitle.svg"
   inkscape:version="0.92.4 (5da689c313, 2019-01-14)">
  <defs
     id="defs2">
    <inkscape:perspective
       sodipodi:type="inkscape:persp3d"
       inkscape:vp_x="0 : 148.50001 : 1"
       inkscape:vp_y="0 : 1000 : 0"
       inkscape:vp_z="209.99999 : 148.50001 : 1"
       inkscape:persp3d-origin="105.00001 : 99.000004 : 1"
       id="perspective819" />
  </defs>
  <sodipodi:namedview
     id="base"
     pagecolor="#ffffff"
     bordercolor="#666666"
     borderopacity="1.0"
     inkscape:pageopacity="0.0"
     inkscape:pageshadow="2"
     inkscape:zoom="0.98994949"
     inkscape:cx="275.70952"
     inkscape:cy="197.96574"
     inkscape:document-units="mm"
     inkscape:current-layer="g1126"
     showgrid="false"
     inkscape:window-width="1920"
     inkscape:window-height="986"
     inkscape:window-x="-11"
     inkscape:window-y="-11"
     inkscape:window-maximized="1"
     fit-margin-top="15"
     fit-margin-left="15"
     fit-margin-right="15"
     fit-margin-bottom="15" />
  <metadata
     id="metadata5">
    <rdf:RDF>
      <cc:Work
         rdf:about="">
        <dc:format>image/svg+xml</dc:format>
        <dc:type
           rdf:resource="http://purl.org/dc/dcmitype/StillImage" />
        <dc:title />
      </cc:Work>
    </rdf:RDF>
  </metadata>
  <g
     inkscape:label="レイヤー 1"
     inkscape:groupmode="layer"
     id="layer1"
     transform="translate(100.52481,-349.98382)" />
  <g
     inkscape:groupmode="layer"
     id="layer2"
     inkscape:label="レイヤー 2"
     transform="translate(100.52481,-349.98382)">
    <g
       inkscape:groupmode="layer"
       id="layer3"
       inkscape:label="Layer 1" />
    <g
       id="g1144">
      <g
         transform="matrix(0.35376672,0,0,0.35376672,-56.223359,210.90954)"
         id="g1067"
         style="fill:#9ca8f4;fill-opacity:1">
        <path
           sodipodi:nodetypes="cccc"
           inkscape:connector-curvature="0"
           id="path1111"
           d="m -82.827031,457.68623 43.67666,38.8237 316.096751,-53.35858 z"
           style="fill:#9ca8f4;fill-opacity:1;stroke:none;stroke-width:0.10008723px;stroke-linecap:butt;stroke-linejoin:miter;stroke-opacity:1" />
      </g>
      <g
         id="g1126"
         transform="matrix(0.41229153,0,0,0.41229153,-49.560246,233.92233)">
        <g
           aria-label="MISSION"
           style="font-style:normal;font-variant:normal;font-weight:normal;font-stretch:extra-condensed;font-size:74.88639832px;line-height:2.25;font-family:Algerian;-inkscape-font-specification:'Algerian, Extra-Condensed';font-variant-ligatures:normal;font-variant-caps:normal;font-variant-numeric:normal;font-feature-settings:normal;text-align:start;letter-spacing:0px;word-spacing:0px;writing-mode:lr-tb;text-anchor:start;fill:#000000;fill-opacity:1;stroke:none;stroke-width:1.00294304"
           id="text1163">
          <path
             d="m -40.335505,366.33493 h -6.362419 l -0.950706,-29.80098 -0.402222,-11.44504 -2.230503,6.65494 -7.057165,19.01412 h -4.497572 l -6.728075,-18.28281 -2.230503,-7.38625 -0.146263,11.95696 -0.841009,29.28906 h -6.143025 l 2.3402,-47.79127 h 7.715347 l 6.43555,17.99029 2.08424,6.06989 2.01111,-6.06989 6.76464,-17.99029 h 7.93474 z"
             style="font-style:normal;font-variant:normal;font-weight:normal;font-stretch:normal;font-family:Consolas;-inkscape-font-specification:Consolas;stroke-width:1.00294304"
             id="path821" />
          <path
             d="M -21.175117,324.0285 H -32.18137 v -5.48484 h 28.5943181 v 5.48484 H -14.593305 v 36.74846 h 11.0062531 v 5.55797 H -32.18137 v -5.55797 h 11.006253 z"
             style="font-style:normal;font-variant:normal;font-weight:normal;font-stretch:normal;font-family:Consolas;-inkscape-font-specification:Consolas;stroke-width:1.00294304"
             id="path823" />
          <path
             d="m 39.231295,353.3907 q 0,3.4006 -1.389494,5.9602 -1.389493,2.55959 -3.875956,4.27817 -2.486462,1.68202 -5.996762,2.52303 -3.473735,0.84101 -7.678781,0.84101 -1.901413,0 -3.802825,-0.14626 -1.864847,-0.14626 -3.619997,-0.36566 -1.718584,-0.21939 -3.2543405,-0.51192 -1.5357563,-0.29252 -2.7789875,-0.62161 v -6.28929 q 2.7424218,1.02384 6.143025,1.60889 3.437169,0.58505 7.788478,0.58505 3.144644,0 5.338581,-0.47535 2.230503,-0.51192 3.619997,-1.46263 1.426059,-0.98727 2.047675,-2.37676 0.658181,-1.3895 0.658181,-3.18121 0,-1.93798 -1.096969,-3.29091 -1.060403,-1.38949 -2.815553,-2.4499 -1.75515,-1.09697 -4.022219,-1.97454 -2.230503,-0.91414 -4.570703,-1.86485 -2.340199,-0.9507 -4.607268,-2.04767 -2.230503,-1.13354 -3.985653,-2.63273 -1.7551502,-1.53575 -2.8521189,-3.58343 -1.0604031,-2.04767 -1.0604031,-4.86323 0,-2.44989 1.0238375,-4.82666 1.0238375,-2.37676 3.1812095,-4.20505 2.157372,-1.86484 5.521409,-2.99838 3.400603,-1.13353 8.081003,-1.13353 1.206666,0 2.596159,0.1097 1.42606,0.10969 2.852119,0.32909 1.462625,0.18282 2.852119,0.43878 1.426059,0.25596 2.632725,0.54849 v 5.8505 q -2.815553,-0.80445 -5.631107,-1.20667 -2.815553,-0.43879 -5.448278,-0.43879 -5.59454,0 -8.227265,1.86485 -2.632725,1.86485 -2.632725,5.00949 0,1.93798 1.060403,3.32747 1.096969,1.3895 2.852119,2.48647 1.75515,1.09696 3.985653,2.01111 2.267069,0.87757 4.607269,1.82828 2.3402,0.9507 4.570703,2.08424 2.267068,1.13353 4.022218,2.70585 1.75515,1.53576 2.815553,3.62 1.096969,2.08424 1.096969,4.93636 z"
             style="font-style:normal;font-variant:normal;font-weight:normal;font-stretch:normal;font-family:Consolas;-inkscape-font-specification:Consolas;stroke-width:1.00294304"
             id="path825" />
          <path
             d="m 80.47732,353.3907 q 0,3.4006 -1.389494,5.9602 -1.389493,2.55959 -3.875956,4.27817 -2.486462,1.68202 -5.996762,2.52303 -3.473734,0.84101 -7.678781,0.84101 -1.901413,0 -3.802825,-0.14626 -1.864847,-0.14626 -3.619997,-0.36566 -1.718584,-0.21939 -3.25434,-0.51192 -1.535757,-0.29252 -2.778988,-0.62161 v -6.28929 q 2.742422,1.02384 6.143025,1.60889 3.437169,0.58505 7.788478,0.58505 3.144644,0 5.338581,-0.47535 2.230503,-0.51192 3.619997,-1.46263 1.426059,-0.98727 2.047675,-2.37676 0.658181,-1.3895 0.658181,-3.18121 0,-1.93798 -1.096969,-3.29091 -1.060403,-1.38949 -2.815553,-2.4499 -1.75515,-1.09697 -4.022218,-1.97454 -2.230503,-0.91414 -4.570703,-1.86485 -2.3402,-0.9507 -4.607269,-2.04767 -2.230503,-1.13354 -3.985653,-2.63273 -1.75515,-1.53575 -2.852119,-3.58343 -1.060403,-2.04767 -1.060403,-4.86323 0,-2.44989 1.023838,-4.82666 1.023837,-2.37676 3.181209,-4.20505 2.157372,-1.86484 5.521409,-2.99838 3.400603,-1.13353 8.081003,-1.13353 1.206666,0 2.596159,0.1097 1.42606,0.10969 2.852119,0.32909 1.462625,0.18282 2.852119,0.43878 1.426059,0.25596 2.632725,0.54849 v 5.8505 q -2.815553,-0.80445 -5.631106,-1.20667 -2.815553,-0.43879 -5.448278,-0.43879 -5.594541,0 -8.227266,1.86485 -2.632725,1.86485 -2.632725,5.00949 0,1.93798 1.060403,3.32747 1.096969,1.3895 2.852119,2.48647 1.75515,1.09696 3.985653,2.01111 2.267069,0.87757 4.607269,1.82828 2.3402,0.9507 4.570703,2.08424 2.267068,1.13353 4.022218,2.70585 1.75515,1.53576 2.815553,3.62 1.096969,2.08424 1.096969,4.93636 z"
             style="font-style:normal;font-variant:normal;font-weight:normal;font-stretch:normal;font-family:Consolas;-inkscape-font-specification:Consolas;stroke-width:1.00294304"
             id="path827" />
          <path
             d="M 102.56296,324.0285 H 91.556705 v -5.48484 h 28.594315 v 5.48484 h -11.00625 v 36.74846 h 11.00625 v 5.55797 H 91.556705 v -5.55797 h 11.006255 z"
             style="font-style:normal;font-variant:normal;font-weight:normal;font-stretch:normal;font-family:Consolas;-inkscape-font-specification:Consolas;stroke-width:1.00294304"
             id="path829" />
          <path
             d="m 165.67523,342.12849 q 0,6.43555 -1.53575,11.11595 -1.49919,4.6804 -4.09535,7.75191 -2.5596,3.03495 -6.03333,4.53414 -3.43717,1.46262 -7.27656,1.46262 -4.60727,0 -8.04444,-1.64545 -3.4006,-1.68202 -5.66767,-4.82666 -2.2305,-3.14465 -3.32747,-7.64222 -1.09697,-4.53414 -1.09697,-10.20181 0,-6.36242 1.49919,-11.04282 1.49919,-4.6804 4.05879,-7.71534 2.59616,-3.07152 6.03332,-4.53414 3.43717,-1.49919 7.27656,-1.49919 4.60727,0 8.00787,1.68202 3.43717,1.68202 5.70424,4.82666 2.26707,3.10808 3.36404,7.60565 1.13353,4.49757 1.13353,10.12868 z m -6.76464,0.47535 q 0,-4.20505 -0.65818,-7.67878 -0.62161,-3.5103 -2.04767,-6.03333 -1.42606,-2.52303 -3.69313,-3.91252 -2.2305,-1.38949 -5.41171,-1.38949 -3.07152,0 -5.30202,1.49919 -2.19394,1.46262 -3.62,4.02222 -1.42605,2.52302 -2.1208,5.96019 -0.69475,3.4006 -0.69475,7.24 0,4.24161 0.65818,7.75191 0.65818,3.47373 2.04768,5.99676 1.42606,2.48646 3.65656,3.87596 2.2305,1.38949 5.37515,1.38949 3.07151,0 5.30201,-1.46263 2.23051,-1.49919 3.65656,-4.02221 1.46263,-2.5596 2.15738,-5.9602 0.69474,-3.4006 0.69474,-7.27656 z"
             style="font-style:normal;font-variant:normal;font-weight:normal;font-stretch:normal;font-family:Consolas;-inkscape-font-specification:Consolas;stroke-width:1.00294304"
             id="path831" />
          <path
             d="m 204.61762,366.33493 h -8.48323 l -13.9315,-29.80098 -4.02222,-9.5802 v 24.09675 15.28443 h -6.06989 v -47.79127 h 8.37353 l 13.27332,28.22866 4.79009,10.93312 v -25.59593 -13.56585 h 6.0699 z"
             style="font-style:normal;font-variant:normal;font-weight:normal;font-stretch:normal;font-family:Consolas;-inkscape-font-specification:Consolas;stroke-width:1.00294304"
             id="path833" />
        </g>
      </g>
    </g>
  </g>
</svg>
