<?xml version="1.0" encoding="UTF-8" standalone="no"?>
<!-- Created with Inkscape (http://www.inkscape.org/) -->

<svg
   xmlns:dc="http://purl.org/dc/elements/1.1/"
   xmlns:cc="http://creativecommons.org/ns#"
   xmlns:rdf="http://www.w3.org/1999/02/22-rdf-syntax-ns#"
   xmlns:svg="http://www.w3.org/2000/svg"
   xmlns="http://www.w3.org/2000/svg"
   xmlns:sodipodi="http://sodipodi.sourceforge.net/DTD/sodipodi-0.dtd"
   xmlns:inkscape="http://www.inkscape.org/namespaces/inkscape"
   width="769.16272mm"
   height="81.798164mm"
   viewBox="0 0 769.16273 81.798168"
   version="1.1"
   id="svg8"
   inkscape:version="0.92.4 (5da689c313, 2019-01-14)"
   sodipodi:docname="mission.svg">
  <defs
     id="defs2" />
  <sodipodi:namedview
     id="base"
     pagecolor="#ffffff"
     bordercolor="#666666"
     borderopacity="1.0"
     inkscape:pageopacity="0.0"
     inkscape:pageshadow="2"
     inkscape:zoom="0.35"
     inkscape:cx="543.45407"
     inkscape:cy="406.72436"
     inkscape:document-units="mm"
     inkscape:current-layer="text842"
     showgrid="false"
     fit-margin-top="0"
     fit-margin-left="0"
     fit-margin-right="0"
     fit-margin-bottom="0"
     inkscape:window-width="1920"
     inkscape:window-height="986"
     inkscape:window-x="-11"
     inkscape:window-y="-11"
     inkscape:window-maximized="1" />
  <metadata
     id="metadata5">
    <rdf:RDF>
      <cc:Work
         rdf:about="">
        <dc:format>image/svg+xml</dc:format>
        <dc:type
           rdf:resource="http://purl.org/dc/dcmitype/StillImage" />
        <dc:title />
      </cc:Work>
    </rdf:RDF>
  </metadata>
  <g
     inkscape:label="レイヤー 1"
     inkscape:groupmode="layer"
     id="layer1"
     transform="translate(125.48809,-95.160712)">
    <g
       id="g822"
       transform="matrix(1.4220971,0,0,1,52.968161,0)">
      <path
         sodipodi:nodetypes="ccccc"
         inkscape:connector-curvature="0"
         id="path815"
         d="m -66.304425,95.79976 -59.183665,80.64789 489.98795,0.51123 50.87719,-81.798168 z"
         style="fill:#ffffff;fill-opacity:1;stroke:none;stroke-width:3.2240231;stroke-linecap:butt;stroke-linejoin:miter;stroke-miterlimit:4;stroke-dasharray:none;stroke-opacity:1" />
      <path
         sodipodi:nodetypes="ccccc"
         inkscape:connector-curvature="0"
         id="path815-6"
         d="m -59.696994,100.72044 -52.459926,70.62629 468.09493,0.44771 46.43185,-71.63364 z"
         style="fill:#80ccff;fill-opacity:1;stroke:none;stroke-width:4.97210932;stroke-linecap:butt;stroke-linejoin:miter;stroke-miterlimit:4;stroke-dasharray:none;stroke-opacity:1" />
    </g>
    <flowRoot
       xml:space="preserve"
       id="flowRoot832"
       style="font-style:normal;font-variant:normal;font-weight:normal;font-stretch:extra-condensed;font-size:74.66666412px;line-height:2.25;font-family:Algerian;-inkscape-font-specification:'Algerian, Extra-Condensed';font-variant-ligatures:normal;font-variant-caps:normal;font-variant-numeric:normal;font-feature-settings:normal;text-align:start;letter-spacing:0px;word-spacing:0px;writing-mode:lr-tb;text-anchor:start;fill:#000000;fill-opacity:1;stroke:none"
       transform="matrix(0.28916025,0,0,0.28916025,11.656483,-8.8393983)"><flowRegion
         id="flowRegion834"><rect
           id="rect836"
           width="1258.0841"
           height="317.76709"
           x="114.46425"
           y="291.72501" /></flowRegion><flowPara
         id="flowPara838" /></flowRoot>    <g
       aria-label="ミレニアル世代の顕在化する悩みを解決する"
       style="font-style:normal;font-variant:normal;font-weight:normal;font-stretch:normal;font-size:30.70309448px;line-height:2.25;font-family:'Calisto MT';-inkscape-font-specification:'Calisto MT';font-variant-ligatures:normal;font-variant-caps:normal;font-variant-numeric:normal;font-feature-settings:normal;text-align:start;letter-spacing:0px;word-spacing:0px;writing-mode:lr-tb;text-anchor:start;fill:#000000;fill-opacity:1;stroke:none;stroke-width:0.41120216"
       id="text842">
      <path
         d="m -20.537829,140.02926 q -5.037227,-2.15881 -13.552538,-3.47809 l 0.359802,-2.87841 q 7.435906,0.83954 14.032273,3.35815 z m 1.439207,8.75518 q -9.234915,-3.47809 -16.430953,-4.43756 l 0.59967,-3.11828 q 9.354849,1.31927 16.670821,4.31762 z m -15.111679,-23.02732 q 9.834585,1.0794 14.152208,2.75848 l -0.719604,3.11828 q -5.996698,-2.15881 -13.792406,-2.75848 z"
         style="font-style:normal;font-variant:normal;font-weight:normal;font-stretch:normal;font-family:'Monotype Corsiva';-inkscape-font-specification:'Monotype Corsiva';fill:#ffffff;fill-opacity:1;stroke-width:0.41120216"
         id="path821" />
      <path
         d="M -1.2284613,145.06649 Q 9.8054633,143.02761 14.84269,133.91263 l 2.038877,2.03887 q -5.75683,10.07446 -19.1894339,12.3532 l -1.9189434,-1.43921 0.2398679,-0.7196 v -19.90904 h 2.6385472 q 1.07940564,0.11994 0.1199339,0.83954 z"
         style="font-style:normal;font-variant:normal;font-weight:normal;font-stretch:normal;font-family:'Monotype Corsiva';-inkscape-font-specification:'Monotype Corsiva';fill:#ffffff;fill-opacity:1;stroke-width:0.41120216"
         id="path823" />
      <path
         d="m 22.158661,141.82827 h 24.826331 v 2.63855 H 22.158661 Z m 2.99835,-13.0728 h 17.630292 v 2.63854 H 25.157011 Z"
         style="font-style:normal;font-variant:normal;font-weight:normal;font-stretch:normal;font-family:'Monotype Corsiva';-inkscape-font-specification:'Monotype Corsiva';fill:#ffffff;fill-opacity:1;stroke-width:0.41120216"
         id="path825" />
      <path
         d="m 65.934558,135.5917 q 0.239868,9.11498 -7.795708,14.15221 l -2.038877,-2.27875 q 7.076104,-3.83788 7.076104,-10.79405 v -5.15716 h 2.518613 q 1.079406,0.11993 0.239868,0.83954 v 3.11828 q 4.317623,-3.23822 6.596368,-6.3565 l -19.549236,0.7196 -0.239868,-2.75848 21.827981,-0.59967 0.839538,-0.23987 1.799009,2.15881 q 0.359802,0.47974 -0.599669,0.35981 -3.598019,4.67742 -8.635246,8.75518 z"
         style="font-style:normal;font-variant:normal;font-weight:normal;font-stretch:normal;font-family:'Monotype Corsiva';-inkscape-font-specification:'Monotype Corsiva';fill:#ffffff;fill-opacity:1;stroke-width:0.41120216"
         id="path827" />
      <path
         d="m 98.316728,144.34688 q 5.277092,-2.03888 9.714652,-8.15551 l 1.67907,2.27875 q -4.55749,6.23656 -11.513656,8.99504 l -0.959472,0.47974 -1.918943,-1.43921 0.239868,-0.59967 v -19.30936 h 2.518613 q 1.079406,0.23986 0.239868,0.95947 z m -16.071151,3.23822 q 5.996698,-5.75683 5.996698,-14.27214 v -5.39703 h 2.518613 q 1.079406,0.23987 0.239868,0.95947 v 4.31762 q 0,10.07446 -6.3565,15.95122 z"
         style="font-style:normal;font-variant:normal;font-weight:normal;font-stretch:normal;font-family:'Monotype Corsiva';-inkscape-font-specification:'Monotype Corsiva';fill:#ffffff;fill-opacity:1;stroke-width:0.41120216"
         id="path829" />
      <path
         d="m 138.49461,145.54622 v 2.63855 h -18.94957 v 2.03888 h -2.39868 v -16.67083 h -4.43756 v -2.63854 h 4.43756 v -6.7163 h 2.27875 q 0.95947,0.11993 0.11993,0.7196 v 5.9967 h 5.15716 v -7.43591 h 2.27874 q 0.95948,0.11994 0.11994,0.71961 v 6.7163 h 5.87676 v -6.95617 h 2.27875 q 0.95947,0.11993 0.11993,0.7196 v 6.23657 h 4.43756 v 2.63854 h -4.43756 v 8.99505 h -2.39868 v -1.43921 h -5.87676 v 2.03888 h -2.39868 v -9.59472 h -5.15716 v 11.9934 z m -5.51697,-6.7163 v -5.2771 h -5.87676 v 5.2771 z"
         style="font-style:normal;font-variant:normal;font-weight:normal;font-stretch:normal;font-family:'Monotype Corsiva';-inkscape-font-specification:'Monotype Corsiva';fill:#ffffff;fill-opacity:1;stroke-width:0.41120216"
         id="path831" />
      <path
         d="m 160.20265,124.43784 q 1.31928,0.11994 0.11994,0.95948 l 0.3598,6.7163 8.87511,-0.95947 0.3598,2.27874 -8.87511,0.95947 q 0.83954,8.27545 4.67742,11.2738 1.79901,1.4392 2.03888,-0.71961 l 0.23987,-2.15881 2.51861,1.31927 -0.3598,1.79901 q -1.0794,5.39703 -5.39703,2.39868 -5.39703,-3.71795 -6.23656,-13.67247 l -6.7163,0.59967 -0.11994,-2.27874 6.47644,-0.59967 -0.35981,-8.15551 z m -16.79075,11.9934 q 4.31762,-3.47808 6.3565,-12.47313 l 2.63855,0.83954 q 0.7196,0.47973 -0.35981,0.59967 -0.3598,2.27874 -2.15881,6.47643 1.43921,0.23987 0.3598,0.83954 v 17.15055 h -2.39868 V 135.5917 q -1.55914,2.27875 -2.63854,3.11829 z m 20.50871,-11.15386 q 2.27874,1.67908 3.47808,3.11828 l -2.15881,2.03888 q -1.07941,-1.55914 -3.23822,-3.23822 z"
         style="font-style:normal;font-variant:normal;font-weight:normal;font-stretch:normal;font-family:'Monotype Corsiva';-inkscape-font-specification:'Monotype Corsiva';fill:#ffffff;fill-opacity:1;stroke-width:0.41120216"
         id="path833" />
      <path
         d="m 188.9868,130.91428 q -2.03887,11.99339 -4.91729,14.87181 -1.55914,1.55914 -3.23822,1.55914 -1.91894,0 -2.99834,-1.07941 -2.87842,-2.87841 -2.87842,-7.19603 0,-5.2771 3.71795,-8.99505 4.07776,-4.07775 9.95452,-4.07775 5.2771,0 8.27545,2.99834 3.35815,3.35816 3.35815,7.91565 0,4.91729 -3.11829,8.03557 -2.03887,2.03888 -6.23656,3.95782 l -2.51862,-2.51861 q 4.19769,-1.31927 6.59637,-3.71795 2.27875,-2.27875 2.27875,-5.51697 0,-3.83788 -2.51862,-6.3565 -2.51861,-2.51861 -7.91564,-2.27874 l 2.15881,1.0794 q 1.43921,0.59967 0,1.31928 z m -2.75848,-2.27875 q -3.11828,0.71961 -5.39703,2.99835 -3.11828,3.11828 -3.11828,7.67578 0,2.75848 1.79901,4.55749 0.3598,0.3598 1.07941,0.3598 0.7196,0 1.55914,-0.83954 2.75848,-2.75848 4.07775,-14.75188 z"
         style="font-style:normal;font-variant:normal;font-weight:normal;font-stretch:normal;font-family:'Monotype Corsiva';-inkscape-font-specification:'Monotype Corsiva';fill:#ffffff;fill-opacity:1;stroke-width:0.41120216"
         id="path835" />
      <path
         d="m 218.49056,147.2253 -12.3532,2.63854 q -0.11993,0.83954 -0.59967,0.35981 l -0.7196,-2.63855 4.19769,-0.59967 v -11.6336 h -1.43921 -1.43921 v -11.15385 h 11.15386 v 11.15385 h -2.75848 v 10.67413 l 3.71795,-0.83954 z m 8.63524,-1.79901 h -4.07775 l 1.19934,1.67907 q 0.59967,0.83954 -0.59967,0.47974 -2.39868,1.91894 -5.87677,3.23822 l -0.95947,-2.27875 q 3.35815,-1.19934 5.75683,-3.11828 h -2.63854 v -16.07115 h 3.71795 l 0.47973,-2.99835 h -5.27709 v -2.27875 h 12.713 v 2.27875 h -5.03723 l -0.7196,2.99835 h 4.79736 v 16.07115 h -3.11828 q 2.03887,1.4392 5.15716,2.75848 l -0.95948,2.27874 q -3.47808,-1.31927 -5.63689,-3.23821 z m -5.15716,-1.91895 h 6.59637 v -2.87841 h -6.59637 z m 6.59637,-7.55584 h -6.59637 v 2.75849 h 6.59637 z m 0,-4.67742 h -6.59637 v 2.75848 h 6.59637 z m -9.59472,6.47643 q 1.07941,0.23987 0,0.71961 -0.47973,2.51861 -1.799,5.75683 l -2.03888,-0.71961 q 1.0794,-2.75848 1.55914,-6.3565 z m -6.47643,-2.39868 h -1.43921 v 11.2738 l 1.43921,-0.23987 z m -5.51696,2.39868 q 1.19934,2.51862 1.43921,5.87677 l -2.27875,0.59967 q -0.3598,-2.99835 -1.31927,-5.75683 z m 8.27544,-7.0761 h -7.0761 v 2.75848 h 7.0761 z m -7.0761,-1.91894 h 7.0761 v -2.63855 h -7.0761 z"
         style="font-style:normal;font-variant:normal;font-weight:normal;font-stretch:normal;font-family:'Monotype Corsiva';-inkscape-font-specification:'Monotype Corsiva';fill:#ffffff;fill-opacity:1;stroke-width:0.41120216"
         id="path837" />
      <path
         d="m 240.55841,132.71329 1.55914,0.3598 q 0.7196,-0.7196 2.27874,-3.59802 h -7.7957 v -2.27875 h 8.75518 q 0.95947,-2.27874 1.4392,-4.31762 l 2.63855,0.95947 q 0.47974,0.47974 -0.3598,0.59967 -0.23987,1.07941 -1.07941,2.75848 h 13.91234 v 2.27875 h -14.87181 q -1.43921,3.23822 -4.07775,6.7163 v 14.15221 h -2.39868 v -11.87346 q -1.55914,1.55914 -4.43756,3.23821 l -1.19934,-2.75848 q 3.35815,-1.55914 5.6369,-4.07775 z m 13.55254,-1.55914 q 0.95947,0.11993 0.11993,0.7196 v 4.67742 h 6.11663 v 2.27875 h -6.11663 v 7.91564 h 7.91564 v 2.27875 h -18.11003 v -2.27875 h 7.79571 v -7.91564 h -6.59637 v -2.27875 h 6.59637 v -5.39702 z"
         style="font-style:normal;font-variant:normal;font-weight:normal;font-stretch:normal;font-family:'Monotype Corsiva';-inkscape-font-specification:'Monotype Corsiva';fill:#ffffff;fill-opacity:1;stroke-width:0.41120216"
         id="path839" />
      <path
         d="m 266.46414,136.79104 q 5.15716,-4.67742 6.47644,-12.83293 l 2.63854,0.7196 q 0.83954,0.23987 -0.3598,0.95947 -0.23986,1.79901 -1.67907,5.2771 l 0.7196,0.23987 q 0.47974,0.3598 -0.3598,0.83953 v 17.75023 h -2.39868 v -14.99175 q -1.43921,2.27875 -3.47808,4.19769 z m 26.62534,5.87677 -0.3598,2.75848 q -0.47973,3.47808 -3.47808,3.47808 h -8.03558 q -2.15881,0 -2.15881,-2.03888 v -22.54758 h 2.27875 q 1.19933,0.11993 0.11993,0.7196 v 8.87512 q 4.55749,-1.79901 8.39538,-4.67743 l 1.79901,2.15881 q 0.83953,0.71961 -0.59967,0.71961 -5.15716,2.63854 -9.59472,4.43755 v 8.75518 q 0,0.95947 0.83954,0.95947 h 6.3565 q 1.31927,0 1.4392,-1.19933 l 0.23987,-2.87842 z"
         style="font-style:normal;font-variant:normal;font-weight:normal;font-stretch:normal;font-family:'Monotype Corsiva';-inkscape-font-specification:'Monotype Corsiva';fill:#ffffff;fill-opacity:1;stroke-width:0.41120216"
         id="path841" />
      <path
         d="m 310.59984,141.5884 q -1.43921,0.83954 -2.99835,0.83954 -2.03887,0 -3.11828,-1.07941 -1.43921,-1.43921 -1.43921,-3.23821 0,-1.91895 1.43921,-3.35816 1.43921,-1.4392 3.59802,-1.4392 1.43921,0 2.75848,0.3598 v -2.63855 l -13.19274,0.83954 -0.47973,-2.51861 13.67247,-0.59967 v -5.6369 h 2.15881 q 1.31927,0.23987 0.23987,0.95947 v 4.55749 l 10.19439,-0.7196 v 2.51861 l -10.19439,0.47974 v 4.55749 q 0.47974,2.15881 0.47974,4.79736 -0.11994,6.11663 -6.83624,10.31432 l -2.27875,-1.67908 q 5.9967,-3.47808 5.9967,-7.31597 z m -2.27874,-6.23657 q -1.31928,0 -2.15881,0.83954 -0.71961,0.71961 -0.71961,1.91895 0,1.0794 0.59967,1.67907 0.59967,0.59967 1.91894,0.59967 1.31928,0 2.15882,-0.83954 0.7196,-0.7196 0.7196,-1.79901 0,-1.0794 -0.7196,-1.79901 -0.59967,-0.59967 -1.79901,-0.59967 z"
         style="font-style:normal;font-variant:normal;font-weight:normal;font-stretch:normal;font-family:'Monotype Corsiva';-inkscape-font-specification:'Monotype Corsiva';fill:#ffffff;fill-opacity:1;stroke-width:0.41120216"
         id="path843" />
      <path
         d="m 345.26076,147.2253 q 1.91894,-0.23987 3.23821,-1.55914 1.43921,-1.43921 1.43921,-3.83789 0,-2.63855 -1.55914,-4.19769 -1.55914,-1.55914 -4.91729,-1.55914 -3.95782,0 -6.11663,1.55914 -2.03888,1.43921 -5.2771,5.15716 l -2.03888,-1.79901 q 8.63525,-8.63524 13.07281,-14.39207 -3.95782,0.47973 -7.91565,0.83953 l -0.83953,-2.75848 q 5.87676,0 10.43425,-0.59967 l 1.07941,-0.47973 1.31927,1.31927 q 1.31927,1.19934 -0.59967,1.55914 -3.59802,4.07776 -7.19604,8.03558 2.51862,-0.59967 4.19769,-0.59967 4.55749,0 6.7163,2.15881 2.15882,2.15881 2.15882,5.51696 0,3.47809 -1.91895,5.39703 -2.87841,2.87841 -7.31597,2.87841 -4.19769,0 -6.11663,-1.91894 -1.55914,-1.55914 -1.55914,-3.71795 0,-1.43921 1.0794,-2.51862 1.19934,-1.19934 2.75848,-1.19934 2.15881,0 3.59802,1.43921 1.67908,1.67908 2.27875,5.2771 z m -2.39868,0.3598 q -0.3598,-3.11828 -1.43921,-4.19769 -0.83954,-0.83954 -1.67907,-0.83954 -0.95948,0 -1.43921,0.47974 -0.59967,0.59967 -0.59967,1.31927 0,1.07941 0.95947,2.03888 1.19934,1.19934 3.11828,1.19934 0.47974,0 1.07941,0 z"
         style="font-style:normal;font-variant:normal;font-weight:normal;font-stretch:normal;font-family:'Monotype Corsiva';-inkscape-font-specification:'Monotype Corsiva';fill:#ffffff;fill-opacity:1;stroke-width:0.41120216"
         id="path845" />
      <path
         d="m 377.04326,140.74886 q -2.03888,2.87842 -4.67743,4.67743 l -1.55914,-1.91895 q 3.11828,-2.15881 4.55749,-4.43755 -1.55914,-1.55914 -3.83788,-3.23822 l 1.31927,-1.79901 q 1.91894,1.31927 3.83789,3.11828 1.19934,-1.79901 2.15881,-4.07775 l 2.03887,1.19934 q 0.47974,0.47973 -0.3598,0.59967 -0.59967,1.55914 -2.15881,3.95782 2.03888,1.79901 3.71795,4.19769 l -1.67907,1.79901 q -1.91894,-2.63855 -3.35815,-4.07776 z m 2.15881,-8.99504 q 2.03888,-3.83789 3.23822,-8.15551 l 2.63854,0.95947 q 0.47974,0.47973 -0.23986,0.59967 -1.55915,4.55749 -3.23822,7.67577 z m -18.3499,-2.39868 q 0.83954,0.23986 0.11994,0.59967 -0.11994,4.79735 -0.95948,8.39537 l -2.15881,-0.95947 q 0.95948,-3.35815 0.95948,-8.27544 z m 21.46818,4.31762 h 2.27875 q 0.95947,0.11993 0.11993,0.7196 v 15.35155 h -2.39868 v -0.95947 h -12.23326 v 1.43921 h -2.39868 v -16.43096 h 2.27874 q 0.95948,0.11994 0.11994,0.71961 v 11.99339 h 12.23326 z m -15.83128,-6.3565 q 1.31927,1.55914 2.15881,4.43756 l -2.27875,0.95947 q -0.47973,-2.63855 -1.91894,-4.43756 z m -2.15881,23.14725 h -2.39868 v -27.46487 h 2.27874 q 0.95948,0.11993 0.11994,0.7196 z m 6.11663,-18.82963 q -0.7196,-3.71795 -2.51861,-6.23656 l 2.27874,-1.07941 q 2.03888,2.51861 2.75848,6.11663 z m 5.27709,-0.95947 q -0.59967,-2.99835 -2.27874,-5.87676 l 2.27874,-1.07941 q 1.79901,2.75848 2.51862,5.87676 z"
         style="font-style:normal;font-variant:normal;font-weight:normal;font-stretch:normal;font-family:'Monotype Corsiva';-inkscape-font-specification:'Monotype Corsiva';fill:#ffffff;fill-opacity:1;stroke-width:0.41120216"
         id="path847" />
      <path
         d="m 410.86463,140.26913 q -1.19933,5.39703 -4.67742,9.23491 l -2.51861,-1.43921 q 3.71795,-3.47808 4.91729,-8.63524 -4.19769,-1.55914 -8.51531,-2.15881 -3.23822,6.95617 -4.31762,8.03557 -1.43921,1.43921 -3.35816,1.43921 -1.4392,0 -2.39867,-0.95947 -1.07941,-1.07941 -1.07941,-3.23822 0,-2.51861 2.39868,-4.91729 2.63855,-2.63855 7.0761,-2.63855 1.43921,-3.71795 2.63855,-6.95617 -3.35815,0.83954 -6.7163,1.55914 l -1.07941,-2.39868 q 3.95782,-0.47973 7.55584,-1.31927 l 1.43921,-0.59967 2.03888,1.55914 q 1.19934,0.71961 -0.11994,1.07941 -1.55914,2.75848 -3.35815,7.19604 3.83789,0.47973 8.15551,1.91894 0.23987,-2.87842 0.11994,-7.0761 l 2.27874,0.47973 q 1.31927,0.23987 0.23987,0.95947 0,3.95782 -0.23987,6.47644 2.27875,0.83954 5.2771,2.39868 l -1.19934,2.39868 q -2.51862,-1.43921 -4.5575,-2.39868 z m -13.31266,-2.99835 q -2.75849,0 -4.43756,1.67907 -1.91894,1.91895 -1.91894,3.59802 0,0.71961 0.47973,1.19934 0.3598,0.3598 1.07941,0.3598 1.0794,0 1.91894,-1.31927 0.7196,-1.07941 2.87842,-5.51696 z"
         style="font-style:normal;font-variant:normal;font-weight:normal;font-stretch:normal;font-family:'Monotype Corsiva';-inkscape-font-specification:'Monotype Corsiva';fill:#ffffff;fill-opacity:1;stroke-width:0.41120216"
         id="path849" />
      <path
         d="m 430.5338,133.91263 q 1.43921,-0.47974 2.75849,-0.47974 1.55914,0 2.51861,0.95947 0.7196,0.71961 0.83954,2.63855 3.59802,-1.31927 8.15551,-2.75848 l 0.83953,2.87841 q -4.67742,0.71961 -8.75518,2.27875 v 5.27709 h -2.39867 v -4.31762 q -3.59802,1.67908 -4.67743,2.75848 -1.31927,1.31928 -1.31927,2.63855 0,0.7196 0.7196,1.43921 0.83954,0.83953 3.23822,0.83953 h 10.07445 v 2.27875 h -10.19439 q -3.83788,0 -5.39702,-1.55914 -1.19934,-1.19934 -1.19934,-2.99835 0,-1.91894 1.55914,-3.47809 2.39868,-2.39868 7.0761,-4.31762 -0.11993,-1.43921 -0.59967,-1.91894 -0.47973,-0.47974 -2.03888,-0.47974 -2.39867,0 -7.31597,4.31762 l -2.03887,-2.03887 q 5.63689,-3.47809 7.67577,-7.67578 -3.35815,0.23987 -6.7163,0.47974 l -0.47974,-2.39868 q 4.31762,-0.11993 8.15551,-0.3598 0.59967,-1.43921 1.43921,-4.79736 l 2.27874,0.59967 q 1.19934,0.47974 0,0.95947 -0.47973,1.55914 -1.0794,3.11828 4.31762,-0.3598 8.27544,-0.95947 l 0.3598,2.51862 q -4.67742,0.3598 -9.35485,0.7196 -1.19934,2.39868 -2.39868,3.83789 z"
         style="font-style:normal;font-variant:normal;font-weight:normal;font-stretch:normal;font-family:'Monotype Corsiva';-inkscape-font-specification:'Monotype Corsiva';fill:#ffffff;fill-opacity:1;stroke-width:0.41120216"
         id="path851" />
      <path
         d="m 452.84152,133.43289 q -0.95947,1.19934 -1.67907,1.79901 l -1.19934,-2.03888 q 3.59802,-3.71795 5.63689,-10.19438 l 2.15881,0.23986 q 0.35981,0.35981 -0.23986,0.71961 l -0.35981,0.83954 h 2.99835 l 0.47974,-0.59967 2.15881,1.4392 -0.59967,0.71961 -2.03888,3.83788 h 3.23822 v 18.3499 q 0,2.03888 -1.79901,2.03888 h -2.63855 l -0.47973,-2.27875 h 2.39868 q 0.47973,0 0.47973,-0.47973 v -5.39703 h -6.47643 q 0,4.91729 -2.51861,7.91564 l -1.79901,-1.43921 q 2.27874,-2.51861 2.27874,-7.91564 z m 17.75023,-2.27874 h 2.39868 q 0.83954,0 0.95947,-0.71961 l 0.3598,-4.07775 h -3.59802 q -0.47973,5.63689 -5.63689,7.7957 l -0.95948,-2.03887 q 4.19769,-1.67908 4.43756,-5.75683 h -3.83789 v -1.91895 h 11.87347 l -0.59967,6.95617 q -0.11994,2.03888 -2.03888,2.03888 h -3.11828 z m 1.79901,13.67247 v 5.63689 h -2.03888 v -5.63689 h -5.87676 v -2.27875 h 5.87676 v -2.75848 h -2.63855 l -1.31927,2.15881 -1.79901,-1.31927 q 1.91894,-2.51861 2.39868,-5.75683 l 2.15881,0.3598 q 0.3598,0.3598 -0.23987,0.7196 l -0.47973,1.55915 h 1.91894 v -2.99835 h 1.91894 q 0.95948,0.11993 0.11994,0.7196 v 2.27875 h 4.19769 v 2.27874 h -4.19769 v 2.75848 h 5.27709 v 2.27875 z m -15.83129,-18.11003 q -0.47973,1.31927 -1.67907,3.47808 h 3.23822 l 1.55914,-3.47808 z m 2.39868,13.7924 h 2.39868 v -3.35815 h -2.39868 z m -1.67907,0 v -3.35815 h -2.39868 v 3.35815 z m -2.39868,-8.39537 v 3.11828 h 2.39868 v -3.11828 z m 4.07775,0 v 3.11828 h 2.39868 v -3.11828 z"
         style="font-style:normal;font-variant:normal;font-weight:normal;font-stretch:normal;font-family:'Monotype Corsiva';-inkscape-font-specification:'Monotype Corsiva';fill:#ffffff;fill-opacity:1;stroke-width:0.41120216"
         id="path853" />
      <path
         d="m 488.22207,140.02926 q -1.55914,4.31762 -4.31762,8.99505 0.3598,0.83953 -0.23987,0.7196 l -2.75848,-1.91894 q 3.11828,-4.43756 4.91729,-8.99505 z m 9.47478,-9.59472 v 5.6369 h 4.43756 v -5.6369 z m 9.95452,19.66917 q -7.67577,-3.83789 -10.43425,-10.07445 -0.83954,6.11663 -9.47478,10.67412 l -1.31928,-2.87841 q 7.79571,-3.83789 8.51531,-9.47479 h -7.0761 v -2.27874 h 7.43591 v -5.6369 h -4.9173 v -2.27874 h 4.9173 v -4.9173 h 2.27874 q 0.95947,0.11994 0.11993,0.71961 v 4.19769 h 6.83624 v 7.91564 h 3.47809 v 2.27874 h -9.11499 q 2.63855,5.51697 9.83459,8.63525 z m -21.94791,-13.4326 q -2.03888,-2.15881 -4.19769,-3.23822 l 1.79901,-2.51861 q 2.15881,0.83954 4.43756,3.23821 z m 1.67907,-6.7163 q -2.15881,-2.27875 -4.19768,-3.47809 l 1.91894,-2.27874 q 2.27874,1.0794 4.31762,3.23821 z"
         style="font-style:normal;font-variant:normal;font-weight:normal;font-stretch:normal;font-family:'Monotype Corsiva';-inkscape-font-specification:'Monotype Corsiva';fill:#ffffff;fill-opacity:1;stroke-width:0.41120216"
         id="path855" />
      <path
         d="m 525.5215,141.5884 q -1.4392,0.83954 -2.99835,0.83954 -2.03887,0 -3.11828,-1.07941 -1.43921,-1.43921 -1.43921,-3.23821 0,-1.91895 1.43921,-3.35816 1.43921,-1.4392 3.59802,-1.4392 1.43921,0 2.75848,0.3598 v -2.63855 l -13.19273,0.83954 -0.47974,-2.51861 13.67247,-0.59967 v -5.6369 h 2.15881 q 1.31928,0.23987 0.23987,0.95947 v 4.55749 l 10.19439,-0.7196 v 2.51861 l -10.19439,0.47974 v 4.55749 q 0.47974,2.15881 0.47974,4.79736 -0.11994,6.11663 -6.83624,10.31432 l -2.27874,-1.67908 q 5.99669,-3.47808 5.99669,-7.31597 z m -2.27874,-6.23657 q -1.31928,0 -2.15881,0.83954 -0.71961,0.71961 -0.71961,1.91895 0,1.0794 0.59967,1.67907 0.59967,0.59967 1.91895,0.59967 1.31927,0 2.15881,-0.83954 0.7196,-0.7196 0.7196,-1.79901 0,-1.0794 -0.7196,-1.79901 -0.59967,-0.59967 -1.79901,-0.59967 z"
         style="font-style:normal;font-variant:normal;font-weight:normal;font-stretch:normal;font-family:'Monotype Corsiva';-inkscape-font-specification:'Monotype Corsiva';fill:#ffffff;fill-opacity:1;stroke-width:0.41120216"
         id="path857" />
      <path
         d="m 560.18239,147.2253 q 1.91894,-0.23987 3.23822,-1.55914 1.4392,-1.43921 1.4392,-3.83789 0,-2.63855 -1.55914,-4.19769 -1.55914,-1.55914 -4.91729,-1.55914 -3.95782,0 -6.11663,1.55914 -2.03888,1.43921 -5.2771,5.15716 l -2.03888,-1.79901 q 8.63525,-8.63524 13.07281,-14.39207 -3.95782,0.47973 -7.91564,0.83953 l -0.83954,-2.75848 q 5.87676,0 10.43425,-0.59967 l 1.07941,-0.47973 1.31927,1.31927 q 1.31928,1.19934 -0.59967,1.55914 -3.59802,4.07776 -7.19604,8.03558 2.51862,-0.59967 4.19769,-0.59967 4.55749,0 6.7163,2.15881 2.15882,2.15881 2.15882,5.51696 0,3.47809 -1.91895,5.39703 -2.87841,2.87841 -7.31597,2.87841 -4.19769,0 -6.11663,-1.91894 -1.55914,-1.55914 -1.55914,-3.71795 0,-1.43921 1.0794,-2.51862 1.19934,-1.19934 2.75848,-1.19934 2.15882,0 3.59802,1.43921 1.67908,1.67908 2.27875,5.2771 z m -2.39868,0.3598 q -0.3598,-3.11828 -1.43921,-4.19769 -0.83954,-0.83954 -1.67907,-0.83954 -0.95948,0 -1.43921,0.47974 -0.59967,0.59967 -0.59967,1.31927 0,1.07941 0.95947,2.03888 1.19934,1.19934 3.11828,1.19934 0.47974,0 1.07941,0 z"
         style="font-style:normal;font-variant:normal;font-weight:normal;font-stretch:normal;font-family:'Monotype Corsiva';-inkscape-font-specification:'Monotype Corsiva';fill:#ffffff;fill-opacity:1;stroke-width:0.41120216"
         id="path859" />
    </g>
  </g>
</svg>
